<svg width="672" height="595" viewBox="0 0 672 595" fill="none" xmlns="http://www.w3.org/2000/svg">
<path d="M538 201.306L648.611 133.92" stroke="url(#paint0_linear_1809_35)" stroke-width="1.65817" stroke-miterlimit="10"/>
<path d="M118.393 299.248H0" stroke="url(#paint1_linear_1809_35)" stroke-width="1.65817" stroke-miterlimit="10"/>
<circle cx="337" cy="299" r="188" fill="url(#paint2_radial_1809_35)"/>
<path d="M336.966 417.641C402.352 417.641 455.359 364.635 455.359 299.248C455.359 233.861 402.352 180.855 336.966 180.855C271.579 180.855 218.572 233.861 218.572 299.248C218.572 364.635 271.579 417.641 336.966 417.641Z" fill="url(#paint3_linear_1809_35)"/>
<path d="M336 82.6345C455.19 82.6345 552 179.611 552 298.635C552 417.658 455.024 514.635 336 514.635" stroke="url(#paint4_linear_1809_35)" stroke-width="3.31634" stroke-miterlimit="10"/>
<path d="M336 82.6345C216.81 82.6345 120 179.611 120 298.635C120 417.658 216.976 514.635 336 514.635" stroke="url(#paint5_linear_1809_35)" stroke-width="3.31634" stroke-miterlimit="10"/>
<path d="M553.025 299.248H671.418" stroke="url(#paint6_linear_1809_35)" stroke-width="1.65817" stroke-miterlimit="10"/>
<path d="M530.806 394.758L638.255 446.991" stroke="url(#paint7_linear_1809_35)" stroke-width="1.65817" stroke-miterlimit="10"/>
<path d="M468.458 470.537L505.601 594.733" stroke="url(#paint8_linear_1809_35)" stroke-width="1.65817" stroke-miterlimit="10"/>
<g opacity="0.3">
<path d="M459.054 475.778C455.67 471.459 456.593 465.134 460.9 461.741C465.208 458.347 471.515 459.118 474.899 463.592C478.284 467.911 477.515 474.236 473.053 477.629C471.207 479.018 469.054 479.635 466.9 479.635C463.977 479.635 460.9 478.246 459.054 475.778Z" fill="url(#paint9_linear_1809_35)"/>
<path d="M459.054 475.778C455.67 471.459 456.593 465.134 460.9 461.741C465.208 458.347 471.515 459.118 474.899 463.592C478.284 467.911 477.515 474.236 473.053 477.629C471.207 479.018 469.054 479.635 466.9 479.635C463.977 479.635 460.9 478.246 459.054 475.778Z" fill="url(#paint10_linear_1809_35)"/>
</g>
<g opacity="0.3">
<path d="M525.512 402.556C520.592 400.092 518.593 394.085 521.053 389.156C523.513 384.227 529.511 382.225 534.431 384.689C539.352 387.154 541.351 393.161 539.045 398.09C537.353 401.632 533.816 403.635 530.126 403.635C528.434 403.635 526.896 403.172 525.512 402.556Z" fill="url(#paint11_linear_1809_35)"/>
<path d="M525.512 402.556C520.592 400.092 518.593 394.085 521.053 389.156C523.513 384.227 529.511 382.225 534.431 384.689C539.352 387.154 541.351 393.161 539.045 398.09C537.353 401.632 533.816 403.635 530.126 403.635C528.434 403.635 526.896 403.172 525.512 402.556Z" fill="url(#paint12_linear_1809_35)"/>
</g>
<g opacity="0.3">
<path d="M542 297.635C542 292.096 546.462 287.635 552 287.635C557.538 287.635 562 292.096 562 297.635C562 303.173 557.538 307.635 552 307.635C546.462 307.635 542 303.173 542 297.635Z" fill="url(#paint13_linear_1809_35)"/>
<path d="M542 297.635C542 292.096 546.462 287.635 552 287.635C557.538 287.635 562 292.096 562 297.635C562 303.173 557.538 307.635 552 307.635C546.462 307.635 542 303.173 542 297.635Z" fill="url(#paint14_linear_1809_35)"/>
</g>
<g opacity="0.3">
<path d="M520.056 207.09C517.589 202.161 519.593 196.154 524.528 193.689C529.463 191.225 535.477 193.227 537.944 198.156C540.411 203.085 538.407 209.092 533.472 211.556C532.084 212.326 530.542 212.635 529 212.635C525.299 212.635 521.752 210.632 520.056 207.09Z" fill="url(#paint15_linear_1809_35)"/>
<path d="M520.056 207.09C517.589 202.161 519.593 196.154 524.528 193.689C529.463 191.225 535.477 193.227 537.944 198.156C540.411 203.085 538.407 209.092 533.472 211.556C532.084 212.326 530.542 212.635 529 212.635C525.299 212.635 521.752 210.632 520.056 207.09Z" fill="url(#paint16_linear_1809_35)"/>
</g>
<path d="M471.36 124.542L515.251 2.68411" stroke="url(#paint17_linear_1809_35)" stroke-width="1.65817" stroke-miterlimit="10"/>
<g opacity="0.3">
<path d="M460.909 134.624C456.592 131.223 455.667 124.884 459.059 120.555C462.451 116.225 468.773 115.298 473.091 118.699C477.408 122.101 478.333 128.44 474.941 132.769C472.936 135.398 470.007 136.635 466.923 136.635C464.764 136.635 462.605 136.016 460.909 134.624Z" fill="url(#paint18_linear_1809_35)"/>
<path d="M460.909 134.624C456.592 131.223 455.667 124.884 459.059 120.555C462.451 116.225 468.773 115.298 473.091 118.699C477.408 122.101 478.333 128.44 474.941 132.769C472.936 135.398 470.007 136.635 466.923 136.635C464.764 136.635 462.605 136.016 460.909 134.624Z" fill="url(#paint19_linear_1809_35)"/>
</g>
<path d="M142.575 394.758L35.1252 446.991" stroke="url(#paint20_linear_1809_35)" stroke-width="1.65817" stroke-miterlimit="10"/>
<path d="M142.575 204.232L35.1252 152" stroke="url(#paint21_linear_1809_35)" stroke-width="1.65817" stroke-miterlimit="10"/>
<path d="M204.922 470.537L167.779 594.733" stroke="url(#paint22_linear_1809_35)" stroke-width="1.65817" stroke-miterlimit="10"/>
<g opacity="0.3">
<path d="M211.946 475.778C215.33 471.459 214.407 465.134 210.1 461.741C205.792 458.347 199.485 459.118 196.101 463.592C192.716 467.911 193.485 474.236 197.947 477.629C199.793 479.018 201.946 479.635 204.1 479.635C207.023 479.635 209.946 478.246 211.946 475.778Z" fill="url(#paint23_linear_1809_35)"/>
<path d="M211.946 475.778C215.33 471.459 214.407 465.134 210.1 461.741C205.792 458.347 199.485 459.118 196.101 463.592C192.716 467.911 193.485 474.236 197.947 477.629C199.793 479.018 201.946 479.635 204.1 479.635C207.023 479.635 209.946 478.246 211.946 475.778Z" fill="url(#paint24_linear_1809_35)"/>
</g>
<g opacity="0.3">
<path d="M145.488 402.556C150.408 400.092 152.407 394.085 149.947 389.156C147.487 384.227 141.489 382.225 136.569 384.689C131.648 387.154 129.649 393.161 131.955 398.09C133.647 401.632 137.184 403.635 140.874 403.635C142.566 403.635 144.104 403.172 145.488 402.556Z" fill="url(#paint25_linear_1809_35)"/>
<path d="M145.488 402.556C150.408 400.092 152.407 394.085 149.947 389.156C147.487 384.227 141.489 382.225 136.569 384.689C131.648 387.154 129.649 393.161 131.955 398.09C133.647 401.632 137.184 403.635 140.874 403.635C142.566 403.635 144.104 403.172 145.488 402.556Z" fill="url(#paint26_linear_1809_35)"/>
</g>
<g opacity="0.3">
<path d="M127 297.635C127 292.096 122.538 287.635 117 287.635C111.462 287.635 107 292.096 107 297.635C107 303.173 111.462 307.635 117 307.635C122.538 307.635 127 303.173 127 297.635Z" fill="url(#paint27_linear_1809_35)"/>
<path d="M127 297.635C127 292.096 122.538 287.635 117 287.635C111.462 287.635 107 292.096 107 297.635C107 303.173 111.462 307.635 117 307.635C122.538 307.635 127 303.173 127 297.635Z" fill="url(#paint28_linear_1809_35)"/>
</g>
<g opacity="0.3">
<path d="M149.944 207.09C152.411 202.161 150.407 196.154 145.472 193.689C140.537 191.225 134.523 193.227 132.056 198.156C129.589 203.085 131.593 209.092 136.528 211.556C137.916 212.326 139.458 212.635 141 212.635C144.701 212.635 148.248 210.632 149.944 207.09Z" fill="url(#paint29_linear_1809_35)"/>
<path d="M149.944 207.09C152.411 202.161 150.407 196.154 145.472 193.689C140.537 191.225 134.523 193.227 132.056 198.156C129.589 203.085 131.593 209.092 136.528 211.556C137.916 212.326 139.458 212.635 141 212.635C144.701 212.635 148.248 210.632 149.944 207.09Z" fill="url(#paint30_linear_1809_35)"/>
</g>
<path d="M205.087 127.793L167.779 3.76221" stroke="url(#paint31_linear_1809_35)" stroke-width="1.65817" stroke-miterlimit="10"/>
<g opacity="0.3">
<path d="M210.091 134.624C214.408 131.223 215.333 124.884 211.941 120.555C208.549 116.225 202.227 115.298 197.909 118.699C193.592 122.101 192.667 128.44 196.059 132.769C198.064 135.398 200.993 136.635 204.077 136.635C206.236 136.635 208.395 136.016 210.091 134.624Z" fill="url(#paint32_linear_1809_35)"/>
<path d="M210.091 134.624C214.408 131.223 215.333 124.884 211.941 120.555C208.549 116.225 202.227 115.298 197.909 118.699C193.592 122.101 192.667 128.44 196.059 132.769C198.064 135.398 200.993 136.635 204.077 136.635C206.236 136.635 208.395 136.016 210.091 134.624Z" fill="url(#paint33_linear_1809_35)"/>
</g>
<path d="M521 298.469C521 400.492 438.098 483.635 336 483.635V416.889C401.197 416.889 454.149 363.89 454.149 298.635C454.149 233.38 401.197 180.381 336 180.381V113.636C438.098 113.304 521 196.446 521 298.469Z" fill="#FFCD01"/>
<path d="M152 298.469C152 400.492 234.902 483.635 337 483.635V416.889C271.803 416.889 218.851 363.89 218.851 298.635C218.851 233.38 271.803 180.381 337 180.381V113.636C234.902 113.304 152 196.446 152 298.469Z" fill="#FFCD01"/>
<path d="M342.752 231C309.494 242.191 281.439 265.005 270 299C281.308 332.607 309.1 355.676 342.752 367C372.677 343.981 388.995 325.494 401 299C383.769 287.458 376.531 281.516 362.561 263.655C343.843 272.328 327.551 282.435 313.118 298.631C318.298 305.992 326.897 312.862 333.849 318.507C343.981 311.078 351.708 303.84 356.714 297.629C359.852 301.455 363.391 304.001 366.761 306.129C358.055 320.906 348.285 329.019 336.22 336.768C318.098 327.197 303.531 310.629 296.451 296.62C309.721 274.792 330.535 260.053 354.185 251.839C350.353 245.143 345.331 238.908 342.752 231Z" fill="#FFE30B"/>
<defs>
<linearGradient id="paint0_linear_1809_35" x1="578.833" y1="154.65" x2="607.746" y2="180.6" gradientUnits="userSpaceOnUse">
<stop stop-color="white"/>
<stop offset="1" stop-color="#F5F5F5"/>
</linearGradient>
<linearGradient id="paint1_linear_1809_35" x1="nan" y1="nan" x2="nan" y2="nan" gradientUnits="userSpaceOnUse">
<stop stop-color="white"/>
<stop offset="1" stop-color="#F5F5F5"/>
</linearGradient>
<radialGradient id="paint2_radial_1809_35" cx="0" cy="0" r="1" gradientUnits="userSpaceOnUse" gradientTransform="translate(337 299) rotate(90) scale(188)">
<stop stop-color="#FFD201" stop-opacity="0.41"/>
<stop offset="1" stop-color="#FFD201" stop-opacity="0"/>
</radialGradient>
<linearGradient id="paint3_linear_1809_35" x1="253.132" y1="215.496" x2="420.635" y2="383" gradientUnits="userSpaceOnUse">
<stop stop-color="#F5F5F5"/>
<stop offset="1" stop-color="white"/>
</linearGradient>
<linearGradient id="paint4_linear_1809_35" x1="336.076" y1="298.634" x2="553.781" y2="298.634" gradientUnits="userSpaceOnUse">
<stop stop-color="white"/>
<stop offset="1" stop-color="#F5F5F5"/>
</linearGradient>
<linearGradient id="paint5_linear_1809_35" x1="336.075" y1="298.634" x2="118.37" y2="298.634" gradientUnits="userSpaceOnUse">
<stop stop-color="white"/>
<stop offset="1" stop-color="#F5F5F5"/>
</linearGradient>
<linearGradient id="paint6_linear_1809_35" x1="nan" y1="nan" x2="nan" y2="nan" gradientUnits="userSpaceOnUse">
<stop stop-color="white"/>
<stop offset="1" stop-color="#F5F5F5"/>
</linearGradient>
<linearGradient id="paint7_linear_1809_35" x1="530.383" y1="420.832" x2="638.59" y2="420.832" gradientUnits="userSpaceOnUse">
<stop stop-color="white"/>
<stop offset="1" stop-color="#F5F5F5"/>
</linearGradient>
<linearGradient id="paint8_linear_1809_35" x1="467.698" y1="532.63" x2="506.368" y2="532.63" gradientUnits="userSpaceOnUse">
<stop stop-color="white"/>
<stop offset="1" stop-color="#F5F5F5"/>
</linearGradient>
<linearGradient id="paint9_linear_1809_35" x1="459.855" y1="462.528" x2="474.963" y2="477.595" gradientUnits="userSpaceOnUse">
<stop stop-color="#E991FC"/>
<stop offset="1" stop-color="#7533D8"/>
</linearGradient>
<linearGradient id="paint10_linear_1809_35" x1="454.897" y1="458.957" x2="478.496" y2="481.776" gradientUnits="userSpaceOnUse">
<stop stop-color="#FFDF00"/>
<stop offset="1" stop-color="#FFB800"/>
</linearGradient>
<linearGradient id="paint11_linear_1809_35" x1="522.842" y1="386.47" x2="537.932" y2="401.535" gradientUnits="userSpaceOnUse">
<stop stop-color="#E991FC"/>
<stop offset="1" stop-color="#7533D8"/>
</linearGradient>
<linearGradient id="paint12_linear_1809_35" x1="517.897" y1="382.957" x2="541.496" y2="405.776" gradientUnits="userSpaceOnUse">
<stop stop-color="#FFDF00"/>
<stop offset="1" stop-color="#FFB800"/>
</linearGradient>
<linearGradient id="paint13_linear_1809_35" x1="544.889" y1="290.602" x2="559.955" y2="305.668" gradientUnits="userSpaceOnUse">
<stop stop-color="#E991FC"/>
<stop offset="1" stop-color="#7533D8"/>
</linearGradient>
<linearGradient id="paint14_linear_1809_35" x1="539.897" y1="286.957" x2="563.496" y2="309.776" gradientUnits="userSpaceOnUse">
<stop stop-color="#FFDF00"/>
<stop offset="1" stop-color="#FFB800"/>
</linearGradient>
<linearGradient id="paint15_linear_1809_35" x1="521.91" y1="195.566" x2="536.995" y2="210.669" gradientUnits="userSpaceOnUse">
<stop stop-color="#E991FC"/>
<stop offset="1" stop-color="#7533D8"/>
</linearGradient>
<linearGradient id="paint16_linear_1809_35" x1="516.897" y1="191.957" x2="540.496" y2="214.776" gradientUnits="userSpaceOnUse">
<stop stop-color="#FFDF00"/>
<stop offset="1" stop-color="#FFB800"/>
</linearGradient>
<linearGradient id="paint17_linear_1809_35" x1="473.903" y1="62.5932" x2="512.698" y2="64.6715" gradientUnits="userSpaceOnUse">
<stop stop-color="white"/>
<stop offset="1" stop-color="#F5F5F5"/>
</linearGradient>
<linearGradient id="paint18_linear_1809_35" x1="459.849" y1="119.486" x2="474.999" y2="134.594" gradientUnits="userSpaceOnUse">
<stop stop-color="#E991FC"/>
<stop offset="1" stop-color="#7533D8"/>
</linearGradient>
<linearGradient id="paint19_linear_1809_35" x1="454.897" y1="115.957" x2="478.496" y2="138.776" gradientUnits="userSpaceOnUse">
<stop stop-color="#FFDF00"/>
<stop offset="1" stop-color="#FFB800"/>
</linearGradient>
<linearGradient id="paint20_linear_1809_35" x1="142.982" y1="420.833" x2="34.7754" y2="420.833" gradientUnits="userSpaceOnUse">
<stop stop-color="white"/>
<stop offset="1" stop-color="#F5F5F5"/>
</linearGradient>
<linearGradient id="paint21_linear_1809_35" x1="142.982" y1="178.158" x2="34.7754" y2="178.158" gradientUnits="userSpaceOnUse">
<stop stop-color="white"/>
<stop offset="1" stop-color="#F5F5F5"/>
</linearGradient>
<linearGradient id="paint22_linear_1809_35" x1="205.668" y1="532.63" x2="166.997" y2="532.63" gradientUnits="userSpaceOnUse">
<stop stop-color="white"/>
<stop offset="1" stop-color="#F5F5F5"/>
</linearGradient>
<linearGradient id="paint23_linear_1809_35" x1="196.987" y1="462.527" x2="212.1" y2="477.599" gradientUnits="userSpaceOnUse">
<stop stop-color="#FFDB65"/>
<stop offset="1" stop-color="#FF8C33"/>
</linearGradient>
<linearGradient id="paint24_linear_1809_35" x1="191.897" y1="458.957" x2="215.496" y2="481.776" gradientUnits="userSpaceOnUse">
<stop stop-color="#FFDF00"/>
<stop offset="1" stop-color="#FFB800"/>
</linearGradient>
<linearGradient id="paint25_linear_1809_35" x1="134.003" y1="386.47" x2="149.094" y2="401.536" gradientUnits="userSpaceOnUse">
<stop stop-color="#FFDB65"/>
<stop offset="1" stop-color="#FF8C33"/>
</linearGradient>
<linearGradient id="paint26_linear_1809_35" x1="128.897" y1="382.957" x2="152.496" y2="405.776" gradientUnits="userSpaceOnUse">
<stop stop-color="#FFDF00"/>
<stop offset="1" stop-color="#FFB800"/>
</linearGradient>
<linearGradient id="paint27_linear_1809_35" x1="109.955" y1="290.602" x2="125.023" y2="305.67" gradientUnits="userSpaceOnUse">
<stop stop-color="#FFDB65"/>
<stop offset="1" stop-color="#FF8C33"/>
</linearGradient>
<linearGradient id="paint28_linear_1809_35" x1="104.897" y1="286.957" x2="128.496" y2="309.776" gradientUnits="userSpaceOnUse">
<stop stop-color="#FFDF00"/>
<stop offset="1" stop-color="#FFB800"/>
</linearGradient>
<linearGradient id="paint29_linear_1809_35" x1="133.899" y1="195.565" x2="148.988" y2="210.671" gradientUnits="userSpaceOnUse">
<stop stop-color="#FFDB65"/>
<stop offset="1" stop-color="#FF8C33"/>
</linearGradient>
<linearGradient id="paint30_linear_1809_35" x1="128.897" y1="191.957" x2="152.496" y2="214.776" gradientUnits="userSpaceOnUse">
<stop stop-color="#FFDF00"/>
<stop offset="1" stop-color="#FFB800"/>
</linearGradient>
<linearGradient id="paint31_linear_1809_35" x1="205.848" y1="65.7979" x2="166.997" y2="65.7979" gradientUnits="userSpaceOnUse">
<stop stop-color="white"/>
<stop offset="1" stop-color="#F5F5F5"/>
</linearGradient>
<linearGradient id="paint32_linear_1809_35" x1="196.959" y1="119.49" x2="212.102" y2="134.591" gradientUnits="userSpaceOnUse">
<stop stop-color="#FFDB65"/>
<stop offset="1" stop-color="#FF8C33"/>
</linearGradient>
<linearGradient id="paint33_linear_1809_35" x1="191.897" y1="115.957" x2="215.496" y2="138.776" gradientUnits="userSpaceOnUse">
<stop stop-color="#FFDF00"/>
<stop offset="1" stop-color="#FFB800"/>
</linearGradient>
</defs>
</svg>
